# File produced by Open Asset Import Library (http://www.assimp.sf.net)
# (assimp v4.1.3154142419)

mtllib object5.mtl

# 38 vertex positions
v  -0.4300047755241394 -0.4349996447563171 0.04498044773936272
v  -0.4375193119049072 -0.4349997043609619 0.06000344082713127
v  -0.4225247502326965 -0.4349996447563171 0.05999819561839104
v  -0.4150559902191162 -0.4349996447563171 0.04497526213526726
v  -0.4375296831130981 -0.4349996447563171 0.03001367673277855
v  -0.4450003802776337 -0.4349997043609619 0.04498560354113579
v  -0.4225350618362427 -0.4349996447563171 0.0300084762275219
v  -0.4225285351276398 -0.4470731914043427 0.05999821051955223
v  -0.4150578379631042 -0.4470650553703308 0.04497529193758965
v  -0.4375154972076416 -0.4470731914043427 0.06000344082713127
v  -0.4450031816959381 -0.4470651149749756 0.04498566314578056
v  -0.4375258386135101 -0.4470731616020203 0.03001372143626213
v  -0.4225388467311859 -0.4470731317996979 0.03000852093100548
v  -0.422527551651001 -0.4589592814445496 0.05999819561839104
v  -0.4150578379631042 -0.458967387676239 0.04497530683875084
v  -0.4375193119049072 -0.458960235118866 0.06000342592597008
v  -0.4450013041496277 -0.4589688777923584 0.04498563334345818
v  -0.4375296831130981 -0.458960235118866 0.03001372143626213
v  -0.4225379228591919 -0.4589592814445496 0.03000850602984428
v  -0.4225247502326965 -0.4710323214530945 0.05999825522303581
v  -0.4150540232658386 -0.4710308909416199 0.04497530683875084
v  -0.4375174045562744 -0.4710318148136139 0.06000342592597008
v  -0.444995641708374 -0.4710356593132019 0.04498560354113579
v  -0.4375277757644653 -0.4710318446159363 0.03001370653510094
v  -0.4225350618362427 -0.4710323214530945 0.03000850602984428
v  -0.4225246906280518 -0.4829427599906921 0.05999818071722984
v  -0.4150540232658386 -0.4829394817352295 0.04497530683875084
v  -0.4375154972076416 -0.4829465746879578 0.06000342592597008
v  -0.4450013637542725 -0.4829422831535339 0.04498561844229698
v  -0.4375258684158325 -0.4829465746879578 0.03001373633742332
v  -0.4225350320339203 -0.4829427599906921 0.03000849112868309
v  -0.4225246906280518 -0.4949953258037567 0.05999818071722984
v  -0.4150577783584595 -0.4949967265129089 0.04497527703642845
v  -0.4375174045562744 -0.4949948191642761 0.06000339612364769
v  -0.4449975192546844 -0.4950001239776611 0.04498561844229698
v  -0.4375277757644653 -0.4949948787689209 0.03001376613974571
v  -0.4225350618362427 -0.4949952960014343 0.03000852093100548
v  -0.4300047755241394 -0.4950000941753387 0.04498044773936272

# 0 UV coordinates

# 8 vertex normals
vn 0 1 0
vn 0.8806349039077759 2.980232238769531e-08 0.4737957715988159
vn 0.0003452897071838379 -2.980232238769531e-08 1
vn -0.8803074359893799 0 0.4744038879871368
vn -0.8806349039077759 2.980232238769531e-08 -0.4737957715988159
vn -0.0003452897071838379 -2.980232238769531e-08 -1
vn 0.8803074955940247 -1.490116119384766e-08 -0.4744038581848145
vn 2.979504643008113e-08 -1.00000011920929 0

# Mesh '' with 72 faces
usemtl $Material_0
f  1//1 2//1 3//1
f  1//1 3//1 4//1
f  1//1 5//1 6//1
f  1//1 6//1 2//1
f  1//1 4//1 7//1
f  1//1 7//1 5//1
f  3//2 8//2 9//2
f  3//2 9//2 4//2
f  2//3 10//3 8//3
f  2//3 8//3 3//3
f  6//4 11//4 10//4
f  6//4 10//4 2//4
f  5//5 12//5 11//5
f  5//5 11//5 6//5
f  7//6 13//6 12//6
f  7//6 12//6 5//6
f  4//7 9//7 13//7
f  4//7 13//7 7//7
f  8//2 14//2 15//2
f  8//2 15//2 9//2
f  10//3 16//3 14//3
f  10//3 14//3 8//3
f  11//4 17//4 16//4
f  11//4 16//4 10//4
f  12//5 18//5 17//5
f  12//5 17//5 11//5
f  13//6 19//6 18//6
f  13//6 18//6 12//6
f  9//7 15//7 19//7
f  9//7 19//7 13//7
f  14//2 20//2 21//2
f  14//2 21//2 15//2
f  16//3 22//3 20//3
f  16//3 20//3 14//3
f  17//4 23//4 22//4
f  17//4 22//4 16//4
f  18//5 24//5 23//5
f  18//5 23//5 17//5
f  19//6 25//6 24//6
f  19//6 24//6 18//6
f  15//7 21//7 25//7
f  15//7 25//7 19//7
f  20//2 26//2 27//2
f  20//2 27//2 21//2
f  22//3 28//3 26//3
f  22//3 26//3 20//3
f  23//4 29//4 28//4
f  23//4 28//4 22//4
f  24//5 30//5 29//5
f  24//5 29//5 23//5
f  25//6 31//6 30//6
f  25//6 30//6 24//6
f  21//7 27//7 31//7
f  21//7 31//7 25//7
f  26//2 32//2 33//2
f  26//2 33//2 27//2
f  28//3 34//3 32//3
f  28//3 32//3 26//3
f  29//4 35//4 34//4
f  29//4 34//4 28//4
f  30//5 36//5 35//5
f  30//5 35//5 29//5
f  31//6 37//6 36//6
f  31//6 36//6 30//6
f  27//7 33//7 37//7
f  27//7 37//7 31//7
f  38//8 37//8 33//8
f  38//8 33//8 32//8
f  38//8 32//8 34//8
f  38//8 34//8 35//8
f  38//8 35//8 36//8
f  38//8 36//8 37//8

