# File produced by Open Asset Import Library (http://www.assimp.sf.net)
# (assimp v4.1.3154142419)

mtllib object2.mtl

# 8 vertex positions
v  -0.5508242249488831 -0.5610461235046387 0.01000001467764378
v  -0.5835902690887451 -0.5381030440330505 0.01000001467764378
v  -0.5164096355438232 -0.5118970274925232 0.01000001467764378
v  -0.5491756796836853 -0.4889539480209351 0.01000001467764378
v  -0.5508242249488831 -0.5610461235046387 0.03999998420476913
v  -0.5835902690887451 -0.5381030440330505 0.03999998420476913
v  -0.5164096355438232 -0.5118970274925232 0.03999998420476913
v  -0.5491756796836853 -0.4889539480209351 0.03999998420476913

# 0 UV coordinates

# 6 vertex normals
vn 0 0 -1
vn -0.5735768675804138 -0.819151759147644 0
vn 0.5735768675804138 0.819151759147644 0
vn 0 0 1
vn -0.819151759147644 0.5735768675804138 0
vn 0.819151759147644 -0.5735768675804138 0

# Mesh '' with 12 faces
usemtl $Material_0
f  1//1 2//1 3//1
f  3//1 2//1 4//1
f  2//2 1//2 5//2
f  2//2 5//2 6//2
f  3//3 4//3 7//3
f  7//3 4//3 8//3
f  7//4 8//4 5//4
f  5//4 8//4 6//4
f  4//5 2//5 8//5
f  8//5 2//5 6//5
f  1//6 3//6 7//6
f  1//6 7//6 5//6

